<?xml version="1.0" encoding="utf-8"?>
<!-- Generator: Adobe Illustrator 25.0.1, SVG Export Plug-In . SVG Version: 6.00 Build 0)  -->
<svg version="1.1" xmlns="http://www.w3.org/2000/svg" xmlns:xlink="http://www.w3.org/1999/xlink" x="0px" y="0px"
	 viewBox="0 0 2180.9 448.3" style="enable-background:new 0 0 2180.9 448.3;" xml:space="preserve">
<style type="text/css">
	.st0{display:none;}
	.st1{display:inline;fill:#4B0715;}
	.st2{display:inline;fill:#7B0712;}
	.st3{display:inline;fill:#980612;}
	.st4{display:inline;fill:#B90713;}
	.st5{display:inline;fill:#C10A14;}
	.st6{display:inline;fill:#EF8225;}
	.st7{display:inline;fill:#FAA92B;}
	.st8{display:inline;fill:#FBC16E;}
	.st9{fill:url(#SVGID_1_);}
	.st10{fill:url(#SVGID_2_);}
	.st11{fill:url(#SVGID_3_);}
	.st12{fill:url(#SVGID_4_);}
	.st13{fill-rule:evenodd;clip-rule:evenodd;fill:url(#SVGID_5_);}
	.st14{fill-rule:evenodd;clip-rule:evenodd;fill:url(#SVGID_6_);}
	.st15{fill-rule:evenodd;clip-rule:evenodd;fill:url(#SVGID_7_);}
	.st16{fill-rule:evenodd;clip-rule:evenodd;fill:url(#SVGID_8_);}
	.st17{fill-rule:evenodd;clip-rule:evenodd;fill:url(#SVGID_9_);}
	.st18{fill-rule:evenodd;clip-rule:evenodd;fill:url(#SVGID_10_);}
	.st19{fill-rule:evenodd;clip-rule:evenodd;fill:url(#SVGID_11_);}
	.st20{fill-rule:evenodd;clip-rule:evenodd;fill:url(#SVGID_12_);}
	.st21{fill-rule:evenodd;clip-rule:evenodd;fill:url(#SVGID_13_);}
	.st22{fill-rule:evenodd;clip-rule:evenodd;fill:url(#SVGID_14_);}
	.st23{fill-rule:evenodd;clip-rule:evenodd;fill:url(#SVGID_15_);}
	.st24{fill-rule:evenodd;clip-rule:evenodd;fill:url(#SVGID_16_);}
	.st25{fill-rule:evenodd;clip-rule:evenodd;fill:url(#SVGID_17_);}
	.st26{fill-rule:evenodd;clip-rule:evenodd;fill:url(#SVGID_18_);}
	.st27{fill-rule:evenodd;clip-rule:evenodd;fill:url(#SVGID_19_);}
	.st28{fill-rule:evenodd;clip-rule:evenodd;fill:url(#SVGID_20_);}
	.st29{fill-rule:evenodd;clip-rule:evenodd;fill:url(#SVGID_21_);}
	.st30{fill-rule:evenodd;clip-rule:evenodd;fill:url(#SVGID_22_);}
	.st31{fill-rule:evenodd;clip-rule:evenodd;fill:url(#SVGID_23_);}
	.st32{fill-rule:evenodd;clip-rule:evenodd;fill:url(#SVGID_24_);}
	.st33{fill-rule:evenodd;clip-rule:evenodd;fill:url(#SVGID_25_);}
	.st34{fill-rule:evenodd;clip-rule:evenodd;fill:url(#SVGID_26_);}
	.st35{fill-rule:evenodd;clip-rule:evenodd;fill:url(#SVGID_27_);}
	.st36{fill-rule:evenodd;clip-rule:evenodd;fill:url(#SVGID_28_);}
	.st37{fill-rule:evenodd;clip-rule:evenodd;fill:url(#SVGID_29_);}
	.st38{fill-rule:evenodd;clip-rule:evenodd;fill:url(#SVGID_30_);}
	.st39{fill-rule:evenodd;clip-rule:evenodd;fill:url(#SVGID_31_);}
	.st40{fill-rule:evenodd;clip-rule:evenodd;fill:url(#SVGID_32_);}
	.st41{fill-rule:evenodd;clip-rule:evenodd;fill:url(#SVGID_33_);}
	.st42{fill-rule:evenodd;clip-rule:evenodd;fill:url(#SVGID_34_);}
	.st43{fill-rule:evenodd;clip-rule:evenodd;fill:url(#SVGID_35_);}
	.st44{fill-rule:evenodd;clip-rule:evenodd;fill:url(#SVGID_36_);}
	.st45{fill:url(#SVGID_37_);}
	.st46{fill:url(#SVGID_38_);}
	.st47{fill:url(#SVGID_39_);}
	.st48{fill:url(#SVGID_40_);}
	.st49{fill:url(#SVGID_41_);}
	.st50{fill:url(#SVGID_42_);}
	.st51{fill:url(#SVGID_43_);}
	.st52{fill:url(#SVGID_44_);}
	.st53{fill:url(#SVGID_45_);}
	.st54{fill:none;}
	.st55{fill:#FAA92B;}
	.st56{fill:url(#SVGID_46_);}
	.st57{fill:url(#SVGID_47_);}
	.st58{fill:#DC3919;}
	.st59{fill:url(#SVGID_48_);}
	.st60{fill:url(#SVGID_49_);}
	.st61{fill:url(#SVGID_50_);}
	.st62{fill:url(#SVGID_51_);}
	.st63{fill:url(#SVGID_52_);}
	.st64{fill:url(#SVGID_53_);}
	.st65{fill:#FFFFFF;}
	.st66{display:inline;}
	.st67{fill:none;stroke:#000000;stroke-width:10;stroke-linejoin:round;}
	.st68{display:inline;fill:none;stroke:#000000;stroke-width:10;}
	.st69{fill:#231F20;}
	.st70{fill:url(#SVGID_54_);}
	.st71{fill:url(#SVGID_55_);}
	.st72{fill:url(#SVGID_56_);}
	.st73{fill:url(#SVGID_57_);}
	.st74{fill:url(#SVGID_58_);}
	.st75{fill:url(#SVGID_59_);}
	.st76{fill:url(#SVGID_60_);}
	.st77{fill:#FFA233;}
	.st78{fill:#B90713;}
	.st79{fill:url(#SVGID_61_);}
	.st80{fill:url(#SVGID_62_);}
	.st81{fill:url(#SVGID_63_);}
	.st82{fill:url(#SVGID_64_);}
	.st83{fill:url(#SVGID_65_);}
	.st84{fill:url(#SVGID_66_);}
	.st85{fill:url(#SVGID_67_);}
	.st86{fill:#D1311C;}
	.st87{fill:url(#SVGID_68_);}
	.st88{fill:url(#SVGID_69_);}
	.st89{fill:url(#SVGID_70_);}
	.st90{fill:url(#SVGID_71_);}
	.st91{fill:url(#SVGID_72_);}
	.st92{fill:url(#SVGID_73_);}
	.st93{fill:url(#SVGID_74_);}
	.st94{fill:url(#SVGID_75_);}
	.st95{fill:url(#SVGID_76_);}
	.st96{fill:url(#SVGID_77_);}
	.st97{fill:url(#SVGID_78_);}
	.st98{fill:url(#SVGID_79_);}
	.st99{fill:url(#SVGID_80_);}
	.st100{fill:url(#SVGID_81_);}
	.st101{fill:url(#SVGID_82_);}
	.st102{fill:url(#SVGID_83_);}
	.st103{fill:url(#SVGID_84_);}
	.st104{fill:url(#SVGID_85_);}
	.st105{fill:url(#SVGID_86_);}
	.st106{fill:url(#SVGID_87_);}
	.st107{fill:url(#SVGID_88_);}
	.st108{fill:url(#SVGID_89_);}
	.st109{fill:url(#SVGID_90_);}
	.st110{fill:url(#SVGID_91_);}
	.st111{fill:url(#SVGID_92_);}
	.st112{fill:url(#SVGID_93_);}
	.st113{fill:url(#SVGID_94_);}
	.st114{fill:url(#SVGID_95_);}
	.st115{opacity:0.15;}
	.st116{fill:url(#SVGID_96_);}
	.st117{fill:url(#SVGID_97_);}
	.st118{fill:url(#SVGID_98_);}
	.st119{fill:url(#SVGID_99_);}
	.st120{fill:url(#SVGID_100_);}
	.st121{fill:url(#SVGID_101_);}
	.st122{fill:url(#SVGID_102_);}
	.st123{fill:url(#SVGID_103_);}
	.st124{fill:url(#SVGID_104_);}
	.st125{fill:url(#SVGID_105_);}
	.st126{fill:url(#SVGID_106_);}
	.st127{fill:url(#SVGID_107_);}
	.st128{fill:url(#SVGID_108_);}
	.st129{fill:url(#SVGID_109_);}
	.st130{fill:url(#SVGID_110_);}
	.st131{fill:url(#SVGID_111_);}
	.st132{fill:url(#SVGID_112_);}
	.st133{fill:url(#SVGID_113_);}
	.st134{fill:url(#SVGID_114_);}
	.st135{fill:url(#SVGID_115_);}
	.st136{fill:url(#SVGID_116_);}
	.st137{fill:url(#SVGID_117_);}
	.st138{fill:url(#SVGID_118_);}
	.st139{fill:url(#SVGID_119_);}
	.st140{display:none;opacity:0.15;}
	.st141{fill:url(#SVGID_120_);}
	.st142{fill:url(#SVGID_121_);}
	.st143{fill:url(#SVGID_122_);}
	.st144{fill:url(#SVGID_123_);}
	.st145{fill:url(#SVGID_124_);}
	.st146{fill:url(#SVGID_125_);}
	.st147{fill:url(#SVGID_126_);}
	.st148{fill:url(#SVGID_127_);}
	.st149{fill:url(#SVGID_128_);}
	.st150{fill:url(#SVGID_129_);}
	.st151{fill:url(#SVGID_130_);}
	.st152{fill:url(#SVGID_131_);}
	.st153{fill:url(#SVGID_132_);}
	.st154{fill:url(#SVGID_133_);}
	.st155{fill:url(#SVGID_134_);}
	.st156{fill:url(#SVGID_135_);}
	.st157{fill:#EF8225;}
	.st158{fill:#F29B51;}
	.st159{fill:#F5B47C;}
	.st160{fill:#EF6F01;}
	.st161{fill:#C10A14;}
	.st162{fill:#980612;}
	.st163{fill:#CD3B43;}
	.st164{fill:#DA6C72;}
	.st165{fill:#AD3841;}
	.st166{fill:#C16A71;}
	.st167{fill:#E69DA1;}
	.st168{fill:#F3CED0;}
	.st169{fill:#FCCB80;}
	.st170{fill:#7B0712;}
	.st171{fill:#FDDDAA;}
	.st172{fill:#FBBA55;}
	.st173{fill:#F9CDA8;}
	.st174{fill:#803942;}
	.st175{fill:#A06A71;}
	.st176{fill:#EACDD0;}
	.st177{fill:#BF9CA1;}
	.st178{fill:#D69BA0;}
	.st179{fill:url(#SVGID_136_);}
	.st180{fill:url(#SVGID_137_);}
	.st181{fill:url(#SVGID_138_);}
	.st182{fill:url(#SVGID_139_);}
	.st183{fill:url(#SVGID_140_);}
	.st184{fill:url(#SVGID_141_);}
	.st185{fill:url(#SVGID_142_);}
</style>
<g id="Layer_4" class="st0">
</g>
<g id="Layer_5">
</g>
<g id="Layer_6">
</g>
<g id="Layer_7">
	<g>
		<g>
			<g>
				<path class="st69" d="M515.5,401.8c-89.7,0-134.6-47.2-134.6-141.5c0-50.7,11.3-87.4,34-110.1c22.6-22.6,56.2-34,100.6-34
					c44.4,0,78,11.3,100.6,34c22.6,22.7,34,59.3,34,110.1C650.1,354.7,605.2,401.8,515.5,401.8z M515.5,352.4
					c26.1,0,45.2-7.5,57.4-22.6c12.2-15.1,18.3-38.2,18.3-69.5c0-34.7-6.1-59.1-18.3-73.3c-12.2-14.2-31.3-21.3-57.4-21.3
					c-26.1,0-45.2,7.1-57.4,21.3c-12.2,14.2-18.3,38.6-18.3,73.3c0,31.3,6.1,54.4,18.3,69.5C470.3,344.8,489.4,352.4,515.5,352.4z"
					/>
			</g>
			<g>
				<path class="st69" d="M690.5,397.5V120.6h58.1v232.2h136.3v44.7H690.5z"/>
			</g>
			<g>
				<path class="st69" d="M932.2,397.5V295.2l-99.3-174.6h60.6l67.9,125.1l67.9-125.1h60.2l-99.3,174.6v102.3H932.2z"/>
			</g>
			<g>
				<path class="st69" d="M1121.4,397.5V120.6h116.1c41.6,0,72.9,10.7,94,32c21.1,21.4,31.6,57.3,31.6,107.7
					c0,47.6-10.4,82.4-31.2,104.3c-20.8,21.9-52.2,32.9-94.4,32.9H1121.4z M1179.5,352.8h49.9c16.3,0,30.1-2.5,41.3-7.5
					c11.2-5,19.6-14.2,25.2-27.5c5.6-13.3,8.4-32.5,8.4-57.4s-2.6-44-7.7-57.2c-5.2-13.2-13.2-22.2-24.1-27.1
					c-10.9-4.9-25.2-7.3-43-7.3h-49.9V352.8z"/>
			</g>
			<g>
				<path class="st69" d="M1529.5,401.8c-89.7,0-134.6-47.2-134.6-141.5c0-50.7,11.3-87.4,34-110.1c22.6-22.6,56.2-34,100.6-34
					c44.4,0,78,11.3,100.6,34c22.6,22.7,34,59.3,34,110.1C1664.1,354.7,1619.2,401.8,1529.5,401.8z M1529.5,352.4
					c26.1,0,45.2-7.5,57.4-22.6c12.2-15.1,18.3-38.2,18.3-69.5c0-34.7-6.1-59.1-18.3-73.3c-12.2-14.2-31.3-21.3-57.4-21.3
					c-26.1,0-45.2,7.1-57.4,21.3c-12.2,14.2-18.3,38.6-18.3,73.3c0,31.3,6.1,54.4,18.3,69.5C1484.3,344.8,1503.4,352.4,1529.5,352.4
					z"/>
			</g>
			<g>
				<path class="st69" d="M1839.6,401.8c-46.4,0-82-12.5-106.6-37.6c-24.7-25.1-37-59.3-37-102.6c0-45.9,12-81.6,35.9-107.1
					c23.9-25.5,59.7-38.3,107.3-38.3c16.6,0,31.6,1.2,44.9,3.7c13.3,2.4,25.9,5.8,37.6,10.1v50.7c-24.4-10-50.5-15.1-78.3-15.1
					c-31.5,0-54.2,7.9-67.9,23.7c-13.8,15.8-20.6,39.9-20.6,72.2c0,60.8,29.8,91.2,89.4,91.2c13.5,0,26.8-1.2,40-3.7
					c13.2-2.4,25.8-6.1,37.8-11v51.2c-11.8,3.7-24.3,6.7-37.6,9C1871.2,400.7,1856.2,401.8,1839.6,401.8z"/>
			</g>
			<g>
				<path class="st69" d="M2048.5,401.8c-17.8,0-34.3-1.3-49.7-3.9c-15.3-2.6-28.6-6.3-39.8-11.2v-51.2c12.6,5.2,26.2,9.3,40.9,12.5
					c14.6,3.2,29,4.7,43,4.7c20.1,0,34.8-1.9,44.3-5.6c9.5-3.7,14.2-12.2,14.2-25.4c0-8.3-2-14.9-6-19.8c-4-4.9-11-9.2-20.9-13.1
					s-23.9-8.2-41.9-13.1c-29-8-49.3-18.1-61.1-30.1c-11.8-12-17.6-28.7-17.6-49.9c0-25.5,9.3-45.2,28-58.9
					c18.6-13.8,45.7-20.6,81.3-20.6c16.6,0,32.1,1.1,46.4,3.4c14.3,2.3,25.9,5,34.8,8.2v51.2c-23.5-8.9-48-13.3-73.5-13.3
					c-18.1,0-32.3,1.9-42.6,5.8c-10.3,3.9-15.5,12-15.5,24.3c0,7.2,1.9,12.9,5.6,17.2c3.7,4.3,10.1,8.2,19.1,11.6
					c9,3.4,21.7,7.3,38.1,11.6c22.6,6,40.1,13.2,52.5,21.5c12.3,8.3,20.9,17.8,25.6,28.4c4.7,10.6,7.1,22.5,7.1,35.7
					c0,24.1-9.2,43.4-27.5,58.1C2114.9,394.5,2086.7,401.8,2048.5,401.8z"/>
			</g>
		</g>
	</g>
	<linearGradient id="SVGID_1_" gradientUnits="userSpaceOnUse" x1="17.3704" y1="324.2539" x2="217.2244" y2="75.1069">
		<stop  offset="0" style="stop-color:#B90713"/>
		<stop  offset="1" style="stop-color:#FAA92B"/>
	</linearGradient>
	<path class="st9" d="M334.6,127.3c0-8.5-6.7-15.5-15.2-15.8c-1.5-4-3.1-7.8-5-11.6c-9.4-19.2-23.8-34.7-42.9-45.9
		c-13.9-8.2-30.7-13.4-50-15.7c-1.1-7.6-7.7-13.5-15.6-13.5c-7.5,0-13.8,5.2-15.4,12.3H46.4c-1.6-7-7.9-12.3-15.4-12.3
		c-8.7,0-15.8,7.1-15.8,15.8c0,7.5,5.2,13.8,12.3,15.4v105.2c-7,1.6-12.3,7.9-12.3,15.4s5.2,13.8,12.3,15.4v78.8
		c-7,1.6-12.3,7.9-12.3,15.4c0,7.5,5.2,13.8,12.3,15.4v69.6c-7,1.6-12.3,7.9-12.3,15.4c0,8.7,7.1,15.8,15.8,15.8
		c7.2,0,13.3-4.8,15.2-11.4h67.9c1.9,6.6,8,11.4,15.2,11.4c8.7,0,15.8-7.1,15.8-15.8c0-7.5-5.3-13.9-12.4-15.4v-70.2
		c5.9-1.3,10.5-5.9,11.9-11.7h52.2c26.8,0,50.3-5.3,69.9-15.8c3.7-2,7.3-4.1,10.7-6.4c2.7,2.1,6.1,3.4,9.8,3.4
		c8.7,0,15.8-7.1,15.8-15.8c0-3.1-0.9-5.9-2.4-8.3c4.4-5.2,8.4-10.9,11.8-17c10.7-18.8,16.1-40.6,16.1-64.8c0-8.1-0.6-16-1.6-23.6
		C331.5,138.2,334.6,133.1,334.6,127.3z M308.1,103c1.6,3.2,3,6.5,4.3,9.8c-5.3,2.4-9,7.6-9.3,13.7l-57.4,10.3
		c-2.4-5.6-8-9.6-14.5-9.6c-0.1,0-0.1,0-0.2,0L213,54.7c3.8-1.9,6.6-5.3,7.9-9.3c18.3,2.1,34,7,47,14.7
		C285.8,70.6,299.3,85.1,308.1,103z M230,163.9c0,10-1.8,18.7-5.5,26.2c-2.1-1-4.5-1.6-7-1.6c-8.7,0-15.8,7.1-15.8,15.8
		c0,2.3,0.5,4.4,1.3,6.4c-7.3,3.1-16.1,4.6-26.3,4.6h-32c-1.3-6.1-6-10.8-12-12.2v-80.2c6-1.3,10.7-6,12-12h34.8
		c17.4,0,30.3,4.6,38.3,13.6c1.5,1.7,2.9,3.6,4.2,5.6c-4.1,2.9-6.7,7.6-6.7,12.9c0,8.3,6.4,15.1,14.6,15.8
		C230,160.5,230,162.2,230,163.9z M34.6,371.2v-69.6c1.7-0.4,3.3-1,4.7-1.9l76.7,78.4c-1.1,1.7-1.9,3.7-2.3,5.8H46.6
		C45.5,377.6,40.7,372.6,34.6,371.2z M144.7,103.8c-0.3-1.4-0.8-2.7-1.5-3.9l53.5-46.5c2.6,1.9,5.8,3,9.3,3c0.1,0,0.1,0,0.2,0
		l15.1,61.4c-9.4-9.3-23.4-14-41.6-14H144.7z M45.7,170.6l72.9-51.4c1.9,1.8,4.3,3.1,7,3.7v80.3c-3.7,0.9-6.9,3.1-9.1,6.1
		l-69.9-29.9c0.2-0.9,0.2-1.8,0.2-2.8C46.8,174.5,46.4,172.4,45.7,170.6z M191.9,48l-53.5,46.6c-2.6-1.8-5.7-2.9-9.1-2.9
		c-4.1,0-7.9,1.6-10.7,4.2L45.8,46.3c0.3-0.7,0.5-1.4,0.7-2.2h144.1C190.8,45.5,191.3,46.8,191.9,48z M41.8,52.2l72.8,49.5
		c-0.7,1.8-1.1,3.7-1.1,5.8c0,2.1,0.4,4,1.1,5.8l-73,51.5c-2-1.7-4.3-3-7-3.6V56C37.3,55.4,39.8,54,41.8,52.2z M43.8,185.9
		l69.9,29.9c-0.2,0.9-0.2,1.8-0.2,2.8c0,2.1,0.4,4,1.1,5.8l-72.9,50.2c-2-1.8-4.4-3.1-7.1-3.7V192C38.3,191.1,41.6,188.9,43.8,185.9
		z M121,373.1l-76.7-78.4c1.6-2.5,2.5-5.4,2.5-8.5c0-2.1-0.4-4-1.1-5.8l72.9-50.2c2,1.8,4.4,3.1,7.1,3.7v36.1
		c-7,1.6-12.3,7.9-12.3,15.4c0,7.5,5.2,13.7,12.2,15.4v70.3C124,371.6,122.4,372.3,121,373.1z M139,273c-1.8-1.4-3.9-2.4-6.1-2.9
		V234c5.8-1.3,10.3-5.8,11.8-11.5h32.2c7.1,0,13.5-0.7,19.4-2.1L139,273z M263.4,267.2c-18.5,9.9-40.9,14.9-66.5,14.9h-52.1
		c-0.3-1.3-0.7-2.5-1.2-3.6l65.9-60.7c2.4,1.4,5.2,2.3,8.2,2.3c3.7,0,7.1-1.3,9.8-3.4l45.2,31.8c-0.8,1.8-1.2,3.9-1.2,6
		c0,2.5,0.6,4.8,1.6,6.9C269.9,263.5,266.7,265.4,263.4,267.2z M321.3,164.5c0,23-5.1,43.6-15.1,61.3c-3.1,5.5-6.7,10.7-10.7,15.4
		c-2.4-1.5-5.3-2.4-8.4-2.4c-4.1,0-7.7,1.5-10.5,4l-44.8-31.6c1-2.1,1.6-4.4,1.6-6.9c0-3.6-1.2-6.9-3.2-9.6c4.6-8.8,7-19.1,7-30.8
		c0-2.1-0.1-4.1-0.2-6.1c5.6-2.2,9.6-7.6,9.9-13.9l57.4-10.3c2.4,5.6,8,9.6,14.5,9.6c0.4,0,0.8,0,1.1,0
		C320.9,150,321.3,157.1,321.3,164.5z"/>
</g>
<g id="Layer_1">
	<g id="Layer_2">
	</g>
</g>
<g id="Layer_3">
</g>
</svg>
